PathFileType	4	(X/Y/Z)	./resultDataOpenSim/trcMotMarkerGrf/sub09/qtm-13-03.trc
DataRate	CameraRate	NumFrames	NumMarkers	Units	OrigDataRate	OrigDataStartFrame	OrigNumFrames
250.000000	250.000000	14	24	m	250.000000	64	510
Frame#	Time	L.Toe.Tip			R.Toe.Tip			L.Ankle.Lat			R.Ankle.Lat			L.Ankle.Med			R.Ankle.Med			L.Heel			R.Heel			L.Knee.Lat			R.Knee.Lat			L.Knee.Med			R.Knee.Med			L.Thigh.Upper			R.Thigh.Upper			L.ASIS			R.ASIS			V.Sacral			L.Acromium			R.Acromium			C7			L.Elbow			R.Elbow			L.Wrist.Lat			R.Wrist.Lat
		X1	Y1	Z1	X2	Y2	Z2	X3	Y3	Z3	X4	Y4	Z4	X5	Y5	Z5	X6	Y6	Z6	X7	Y7	Z7	X8	Y8	Z8	X9	Y9	Z9	X10	Y10	Z10	X11	Y11	Z11	X12	Y12	Z12	X13	Y13	Z13	X14	Y14	Z14	X15	Y15	Z15	X16	Y16	Z16	X17	Y17	Z17	X18	Y18	Z18	X19	Y19	Z19	X20	Y20	Z20	X21	Y21	Z21	X22	Y22	Z22	X23	Y23	Z23	X24	Y24	Z24

64	0.252	-1.3899387	0.081112464	-0.054076944	-0.64415611	0.039610598	0.041559306	-1.4088878	0.23612344	-0.11655156	-0.79153493	0.052304179	0.074728077	-1.3793536	0.22683119	-0.024330952	-0.78121305	0.098600196	-0.01329363	-1.4704731	0.28157478	-0.068261036	-0.85857315	0.032193599	0.024654478	-1.0432747	0.43089758	-0.15025446	-0.7569341	0.50487198	0.14337591	-1.0275569	0.41437746	-0.025751076	-0.77807188	0.49549277	0.017261376	-1.0100978	0.83725292	-0.1505476	-0.94767296	0.85943822	0.21653787	-0.91215371	0.9239524	-0.10719662	-0.88326533	0.94784567	0.13208463	-1.0668786	0.98799765	0.03037419	-0.90803741	1.3847958	-0.145925	-0.92954402	1.3959471	0.18310481	-0.98405166	1.4428574	0.015744569	-1.0327446	1.0313888	-0.21450215	-1.0760328	1.0687459	0.26183994	-0.81614353	0.86740762	-0.21943282	-0.97051856	0.82120517	0.31405696
65	0.256	-1.3771979	0.083375077	-0.057152383	-0.64412046	0.039601578	0.041472236	-1.397268	0.23851385	-0.11718344	-0.79121049	0.052316676	0.074502742	-1.3678425	0.22865585	-0.025065213	-0.78094834	0.098621961	-0.013257274	-1.4593112	0.28338783	-0.068044851	-0.85854369	0.032426386	0.024679541	-1.0309858	0.43110998	-0.14997886	-0.7539015	0.50478612	0.14376622	-1.0165001	0.4145066	-0.025206085	-0.77508526	0.49540651	0.017432729	-1.0040508	0.83784996	-0.15025984	-0.94238217	0.86076267	0.21671965	-0.90664362	0.92495821	-0.10706683	-0.87744688	0.94896629	0.13216139	-1.061283	0.98915478	0.030592589	-0.90244593	1.3857166	-0.14587854	-0.92316438	1.3969384	0.18316166	-0.97821571	1.4440209	0.016159231	-1.0279785	1.0324988	-0.2139139	-1.0689364	1.069387	0.26307175	-0.81276502	0.86688908	-0.21954341	-0.96226484	0.82224566	0.31384276
66	0.26	-1.364196	0.08534895	-0.060114245	-0.64412466	0.039578141	0.041426778	-1.385398	0.24064347	-0.11782034	-0.79121537	0.052397374	0.074532014	-1.3560177	0.23022589	-0.025750554	-0.78073162	0.098650115	-0.013193118	-1.4480078	0.28488146	-0.067782375	-0.85849375	0.032547638	0.024684853	-1.0187104	0.43148932	-0.14965642	-0.75105233	0.50467038	0.1442055	-1.0054832	0.41471363	-0.024610117	-0.7720847	0.49528874	0.017657555	-0.99804583	0.83853095	-0.15002223	-0.93710821	0.862177	0.21690525	-0.90121998	0.92602414	-0.10691797	-0.87167342	0.95019404	0.13221563	-1.0555912	0.99035267	0.030967538	-0.89689576	1.3867234	-0.14582048	-0.91686965	1.3979928	0.18323085	-0.97236647	1.4452082	0.01657793	-1.023302	1.0337156	-0.21338051	-1.0620266	1.0701332	0.26412723	-0.80946437	0.86642952	-0.21964511	-0.95402146	0.82338682	0.31362125
67	0.264	-1.3510822	0.087016251	-0.062859396	-0.64417112	0.039553046	0.041419459	-1.3732855	0.24249672	-0.11847065	-0.79135139	0.052506984	0.07467413	-1.343947	0.23155987	-0.026387402	-0.78056831	0.098690214	-0.013097455	-1.4364598	0.28616231	-0.067882497	-0.85840849	0.03258617	0.024658161	-1.0064498	0.43204565	-0.1492979	-0.74829298	0.50445708	0.14467587	-0.99409454	0.4150614	-0.02405494	-0.7691376	0.49513923	0.017926605	-0.99206965	0.83930337	-0.14983483	-0.93174864	0.8636718	0.21711387	-0.89585708	0.92716807	-0.10673005	-0.86595598	0.95150833	0.13225225	-1.049907	0.99159383	0.031366399	-0.89150764	1.3878298	-0.14578513	-0.91066254	1.3991181	0.18331572	-0.9665418	1.4464301	0.016969095	-1.0186168	1.0350177	-0.21282964	-1.0553233	1.0709895	0.26498863	-0.80624705	0.86603582	-0.21972793	-0.94580349	0.82463214	0.31340596
68	0.268	-1.3378008	0.088418542	-0.065465168	-0.64425722	0.039548875	0.041439593	-1.3609462	0.24405806	-0.11912494	-0.79149235	0.052614952	0.074820899	-1.3317703	0.23264674	-0.026995021	-0.7804596	0.098746612	-0.012970011	-1.4246417	0.28728294	-0.068561475	-0.85831389	0.032552389	0.024586193	-0.99420914	0.43278138	-0.14889579	-0.74561761	0.50414746	0.14518303	-0.98229489	0.41558356	-0.023547564	-0.76633434	0.49496639	0.018290614	-0.9860976	0.84017933	-0.14968142	-0.92638854	0.86523335	0.21734133	-0.89050433	0.92840669	-0.10648711	-0.86030027	0.95288704	0.13228816	-1.044272	0.99288573	0.031731326	-0.88630976	1.3890367	-0.14578137	-0.90453151	1.4003151	0.18341194	-0.96077804	1.4476968	0.01730005	-1.013766	1.036364	-0.2121522	-1.0487513	1.0719321	0.26573971	-0.80311177	0.86571895	-0.2197832	-0.93761431	0.82598127	0.31320753
69	0.272	-1.3242583	0.089594174	-0.06799969	-0.64437349	0.039578795	0.041481741	-1.3484031	0.24532073	-0.11977169	-0.79165238	0.052722349	0.074951684	-1.3196191	0.23347214	-0.027558405	-0.78040161	0.098820657	-0.012812291	-1.4126188	0.28815716	-0.069595545	-0.85825296	0.032413126	0.02445482	-0.9820013	0.43368142	-0.14844331	-0.74303088	0.50376849	0.14571058	-0.97029895	0.41628176	-0.023040145	-0.76375574	0.49478627	0.018830578	-0.98009927	0.84116359	-0.14953431	-0.92125347	0.86683222	0.21755981	-0.88514202	0.92973729	-0.10619457	-0.85468766	0.95431436	0.13234995	-1.0386951	0.99422049	0.032047357	-0.88123414	1.3903341	-0.14578824	-0.89846924	1.4015809	0.18351243	-0.95508403	1.4490101	0.017554439	-1.008745	1.0377456	-0.21134559	-1.0422451	1.0729411	0.26645876	-0.80005206	0.86548273	-0.21980331	-0.92944446	0.82743392	0.313029
70	0.276	-1.3104021	0.090563304	-0.070483391	-0.64450757	0.03963415	0.041552379	-1.3356863	0.24628973	-0.12040751	-0.79185431	0.052827274	0.075070608	-1.3076309	0.23403337	-0.027996651	-0.78038555	0.098909518	-0.012625579	-1.4004911	0.28864254	-0.070558472	-0.85826203	0.03215304	0.024284239	-0.96983902	0.4347229	-0.14795079	-0.74052973	0.50335189	0.14619089	-0.95828465	0.41714951	-0.022500764	-0.7613908	0.49461868	0.01954386	-0.97404875	0.84225501	-0.1493621	-0.91666594	0.86842164	0.2177167	-0.87981638	0.93113994	-0.10588605	-0.84906852	0.9557813	0.13246059	-1.0331702	0.99559684	0.032321214	-0.8762034	1.3917116	-0.14577921	-0.89247253	1.4029108	0.18361544	-0.94945208	1.4503687	0.017733718	-1.0037792	1.0392104	-0.21056099	-1.0357798	1.0740089	0.26717385	-0.79706205	0.86532352	-0.21978337	-0.92128954	0.82898937	0.31287197
71	0.28	-1.2962102	0.091346813	-0.072925955	-0.64465119	0.03969725	0.041662554	-1.3228283	0.2469739	-0.12102692	-0.79206142	0.052905936	0.075176383	-1.2959681	0.23433325	-0.028207338	-0.7803996	0.099007634	-0.012409481	-1.3883148	0.28869387	-0.071257997	-0.85839115	0.03184132	0.02416374	-0.957734	0.43588932	-0.14743895	-0.73815778	0.50296225	0.14652198	-0.94631224	0.41818122	-0.021920797	-0.75909992	0.49448127	0.020279923	-0.96793686	0.84344999	-0.14914787	-0.91282826	0.86996111	0.21776298	-0.87455754	0.93260423	-0.10559099	-0.84338092	0.95727471	0.13263314	-1.0276869	0.99702989	0.032564568	-0.87119027	1.393161	-0.1457438	-0.8865323	1.4042983	0.1837236	-0.94387569	1.4517762	0.017853317	-0.9990867	1.0408124	-0.20994115	-1.029348	1.075132	0.26787779	-0.79413812	0.86523676	-0.21972504	-0.91316291	0.83063915	0.31274019
72	0.284	-1.2816697	0.091974357	-0.075331777	-0.64480131	0.039758825	0.041816207	-1.3098508	0.24738199	-0.12161667	-0.79223623	0.052944615	0.075274634	-1.2845778	0.23438136	-0.028210161	-0.78043389	0.099110849	-0.012163246	-1.3760872	0.28836086	-0.071779907	-0.85866782	0.031586017	0.024179737	-0.9456961	0.43717377	-0.14691408	-0.73597936	0.50267161	0.1466673	-0.93438518	0.41937013	-0.021303259	-0.75674892	0.49438617	0.020876514	-0.9617719	0.84473538	-0.14892602	-0.909447	0.87145392	0.2177282	-0.86929516	0.9341426	-0.10530447	-0.83759204	0.9587726	0.13286912	-1.022242	0.9985215	0.032779119	-0.86620163	1.3946729	-0.14568955	-0.88063541	1.4057377	0.18383634	-0.93833623	1.4532274	0.017946674	-0.99465199	1.0425466	-0.20946479	-1.0229402	1.0763016	0.26855894	-0.79127613	0.86522218	-0.21963702	-0.90508782	0.83236881	0.31263597
73	0.288	-1.2667746	0.092470058	-0.077690274	-0.6449564	0.039815942	0.042006971	-1.2967559	0.24753339	-0.12217311	-0.79237954	0.052953341	0.075375374	-1.2727687	0.23421768	-0.028276177	-0.78048466	0.09921971	-0.011889167	-1.3637836	0.28768958	-0.072255543	-0.85901057	0.031438498	0.024299428	-0.93371014	0.43857714	-0.14636166	-0.73400766	0.50249115	0.14675993	-0.92250434	0.42071656	-0.020661295	-0.75435683	0.4943385	0.021320216	-0.95555261	0.84608466	-0.1488091	-0.90575628	0.8729459	0.21773889	-0.86392669	0.9357698	-0.10500718	-0.83174922	0.96025347	0.13315088	-1.016839	1.00005	0.032960121	-0.8612532	1.3962416	-0.14563517	-0.87477398	1.4072258	0.18395019	-0.93279357	1.4546952	0.018058051	-0.99030034	1.044361	-0.20899602	-1.0165461	1.0775058	0.26922063	-0.78847255	0.86528591	-0.21953281	-0.897077	0.83416893	0.31255504
74	0.292	-1.251533	0.092835288	-0.079976479	-0.64511673	0.039863586	0.042225621	-1.2835319	0.24745885	-0.12271347	-0.7925151	0.052946941	0.075482717	-1.2594877	0.23390786	-0.028755109	-0.780552	0.099338679	-0.011593936	-1.3513901	0.28669482	-0.072758572	-0.8592781	0.03138309	0.024407904	-0.92173554	0.44010206	-0.14576436	-0.73219249	0.50237036	0.14700282	-0.91068188	0.42222728	-0.019997648	-0.75203456	0.49432916	0.02170061	-0.94924784	0.84747159	-0.14894958	-0.90117564	0.87447614	0.2179028	-0.85843744	0.93748382	-0.10469255	-0.82602796	0.96169917	0.13344223	-1.0114765	1.0015967	0.033113768	-0.85636538	1.3978724	-0.14560216	-0.86894631	1.4087594	0.18406335	-0.92722653	1.4561563	0.018205913	-0.9859007	1.0462182	-0.20843358	-1.0101668	1.0787394	0.26988043	-0.78572999	0.86543363	-0.21942923	-0.88911511	0.83603721	0.31248584
75	0.296	-1.2359826	0.093050419	-0.08215378	-0.64529044	0.039901081	0.042474469	-1.2701727	0.24717227	-0.12325608	-0.79268269	0.052938372	0.075601467	-1.2446045	0.23347489	-0.029657312	-0.78063298	0.099471753	-0.011285989	-1.3389117	0.28537879	-0.073325415	-0.85941367	0.031381161	0.024445138	-0.90977221	0.441745	-0.14512212	-0.73044785	0.50224801	0.14745703	-0.89892849	0.42389685	-0.01930149	-0.74985989	0.49433311	0.022101485	-0.94285148	0.84889418	-0.14936889	-0.89578406	0.87603869	0.21821062	-0.85291405	0.93926744	-0.10435733	-0.82071836	0.96309222	0.13370652	-1.0061418	1.0031608	0.033262091	-0.85154958	1.3995695	-0.14560487	-0.86314855	1.4103313	0.18417306	-0.92166093	1.4576175	0.018365227	-0.98144058	1.0481106	-0.20777618	-1.0038128	1.0800078	0.27055796	-0.78305774	0.86565982	-0.21934388	-0.88116791	0.83796973	0.31241651
76	0.3	-1.2202118	0.093086293	-0.084171378	-0.64549365	0.039945758	0.042772879	-1.2566882	0.24665791	-0.12379834	-0.7929533	0.05294444	0.075759489	-1.229292	0.23287087	-0.030627032	-0.78071873	0.099619324	-0.010969948	-1.3263546	0.28373039	-0.073953766	-0.85946394	0.031398688	0.024436286	-0.89788178	0.44348919	-0.14446712	-0.72870486	0.50208185	0.14802863	-0.88723749	0.42570567	-0.0185799	-0.74785905	0.49432631	0.022569053	-0.93646187	0.85038185	-0.14977746	-0.89004355	0.87759604	0.21858227	-0.8474502	0.94109704	-0.10399114	-0.81600407	0.96442792	0.13392777	-1.0008259	1.0047388	0.033412085	-0.84678915	1.4013142	-0.14563835	-0.85737326	1.4119273	0.18427365	-0.9161292	1.459098	0.018505821	-0.97696842	1.0500313	-0.20707481	-0.99749368	1.0813172	0.27126348	-0.78045758	0.86594959	-0.21928901	-0.87321251	0.83995684	0.31234524
77	0.304	-1.2043271	0.09292184	-0.085984315	-0.64573454	0.040020003	0.043134949	-1.2430967	0.24589354	-0.12431886	-0.79343157	0.052984313	0.076016582	-1.2146426	0.23204214	-0.031386547	-0.78080097	0.099778287	-0.010643235	-1.3137123	0.28173403	-0.074603083	-0.85949373	0.031417719	0.024428892	-0.88607111	0.4453098	-0.14386432	-0.72697788	0.50186863	0.14862078	-0.87558804	0.42763913	-0.017856673	-0.74602555	0.49430034	0.023103301	-0.93020124	0.85196578	-0.14982155	-0.88434816	0.87911699	0.21894666	-0.84206291	0.94295475	-0.10359115	-0.81166323	0.96572793	0.13412656	-0.99554005	1.0063082	0.033537529	-0.84205762	1.403072	-0.14567998	-0.85161785	1.4135302	0.1843617	-0.91063445	1.4606013	0.018624653	-0.97252513	1.051975	-0.20635641	-0.99121759	1.0826658	0.27199717	-0.77790124	0.86629147	-0.21926585	-0.8652534	0.84198779	0.31228141
